<svg viewBox="0 0 512 512" xml:space="preserve" xmlns="http://www.w3.org/2000/svg"><path clip-rule="evenodd" d="M368.003 117.456c-44.426 0-68.012 22.217-102.915 21.764-34.912.453-58.49-21.764-102.922-21.764-35.364 0-80.257 21.764-100.657 53.511-37.629 58.048-34.005 121.088-18.135 186.378C60.603 426.744 121.358 512 169.421 512c39.441 0 57.131-21.325 95.667-21.325 38.526 0 55.756 21.325 94.76 21.325 44.425 0 97.472-73.023 120.152-137.876-43.534-17.232-73.01-60.306-73.01-106.113 0-45.346 23.133-80.264 58.498-100.215-21.759-29.482-63.48-50.34-97.485-50.34zM356.209 0c-63.918 6.804-111.521 60.313-107.444 121.081C312.691 114.731 359.848 60.767 356.209 0z" fill="#ffffff" fill-rule="evenodd" class="fill-c6c7c9"></path></svg>